<svg width="75" height="75" viewBox="0 0 75 75" fill="none" xmlns="http://www.w3.org/2000/svg">
<circle cx="37.5" cy="37.5" r="37.5" fill="#E5EBFB"/>
<path d="M50.5 29.375V26.125C50.5 24.3326 49.0424 22.875 47.25 22.875H26.125C23.4372 22.875 21.25 25.0622 21.25 27.75V47.25C21.25 50.8266 24.1653 52.125 26.125 52.125H50.5C52.2924 52.125 53.75 50.6674 53.75 48.875V32.625C53.75 30.8326 52.2924 29.375 50.5 29.375ZM47.25 44H44V37.5H47.25V44ZM26.125 29.375C25.7066 29.3563 25.3115 29.1769 25.0221 28.8742C24.7326 28.5715 24.5711 28.1688 24.5711 27.75C24.5711 27.3312 24.7326 26.9285 25.0221 26.6258C25.3115 26.3231 25.7066 26.1437 26.125 26.125H47.25V29.375H26.125Z" fill="#335EEA"/>
</svg>
