<svg width="75" height="75" viewBox="0 0 75 75" fill="none" xmlns="http://www.w3.org/2000/svg">
<circle cx="37.5" cy="37.5" r="37.5" fill="#E5EBFB"/>
<g clip-path="url(#clip0_138:572)">
<path d="M45.7274 20.4451C45.6207 20.4908 44.8818 21.1687 44.0897 21.9609C43.0233 23.0273 42.5434 23.4463 42.2615 23.5758C41.8959 23.7434 41.7893 23.751 39.1766 23.7967C36.3049 23.8348 36.3354 23.8348 35.5127 24.2461C35.2918 24.3604 34.3016 25.2896 32.5725 27.0188C30.3406 29.243 29.9598 29.6619 29.876 29.9361C29.7313 30.4541 29.8684 30.7893 30.4168 31.2463C31.0338 31.7566 31.5746 31.9623 32.4506 32.0004C33.5094 32.0461 34.0045 31.8557 35.0404 31.0102C36.5106 29.8143 37.8969 29.7381 39.5422 30.7588C40.6315 31.4367 41.3322 31.6576 42.3758 31.6576C43.4498 31.6576 44.3106 31.3301 45.0723 30.6369L45.5141 30.2408L49.4065 34.1332C51.5545 36.2812 53.3293 38.0332 53.3674 38.0332C53.3979 38.0332 53.4131 37.5076 53.4055 36.8678C53.375 35.2758 53.3293 35.3596 55.325 33.3486C56.658 32.008 56.917 31.7033 56.9627 31.4672C57.0846 30.8273 57.2522 31.0254 51.8744 25.6248C48.957 22.7074 46.7252 20.5289 46.5881 20.468C46.3063 20.3461 46.0016 20.3385 45.7274 20.4451Z" fill="#335EEA"/>
<path d="M28.2456 20.6583C28.1238 20.7345 25.7853 23.0425 23.0507 25.7771C18.6175 30.2331 18.0843 30.7892 18.031 31.0481C17.9243 31.6347 18.0691 31.8556 19.4021 33.2267C20.08 33.9198 20.7503 34.6358 20.8798 34.811C21.1845 35.1995 21.6568 36.1974 21.8929 36.9438L22.0605 37.4923L22.5099 37.081C23.0279 36.6163 23.6372 36.2735 24.2771 36.0907C24.9017 35.9079 26.0976 35.9612 26.707 36.1974C27.6972 36.5858 28.6189 37.4618 28.9312 38.3073C29.0073 38.513 29.0911 38.7034 29.114 38.7339C29.1445 38.7644 29.4111 38.7034 29.7157 38.5968C30.3327 38.3835 31.2316 38.3378 31.9019 38.4901C33.2882 38.8024 34.545 40.0669 34.8421 41.4608C34.964 42.0397 34.8954 43.1519 34.6974 43.7079C34.606 43.9517 34.5527 44.1802 34.5907 44.203C34.6212 44.2335 34.804 44.3173 35.0097 44.3858C36.2132 44.8353 37.2034 46.1911 37.3406 47.5927L37.3863 48.0497L37.8814 48.103C38.9859 48.2097 39.6029 48.5829 41.0425 49.9921C41.629 50.571 42.2156 51.089 42.3374 51.1499C43.1296 51.546 44.1046 51.2489 44.554 50.4796C44.813 50.0378 44.8511 49.3446 44.6302 48.9257C44.554 48.781 43.7771 47.9354 42.9011 47.0595C42.0327 46.1759 41.2786 45.3608 41.2406 45.239C40.8902 44.3173 41.6824 43.4565 42.6573 43.7079C42.7945 43.7384 43.4572 44.3478 44.5083 45.3837C45.4072 46.2749 46.2679 47.0671 46.4126 47.1356C47.0906 47.486 48.0732 47.2042 48.5226 46.5415C48.8197 46.0997 48.8958 45.6884 48.7663 45.1704C48.6825 44.7972 48.5835 44.6829 47.0144 43.0909C46.1003 42.1616 45.3157 41.3161 45.27 41.2019C44.9273 40.2802 45.7195 39.427 46.6945 39.6708C46.8316 39.7013 47.5019 40.3106 48.5835 41.377C50.3812 43.1595 50.4954 43.2433 51.2343 43.2356C51.7523 43.228 52.255 42.9462 52.5597 42.5044C52.8796 42.0245 52.9482 41.5675 52.773 41.0114C52.6511 40.6001 52.4988 40.4401 49.0482 36.9895L45.4605 33.3942L44.7902 33.7218C43.8837 34.1712 43.0991 34.3312 41.987 34.2854C40.6236 34.2321 39.5876 33.8132 38.4831 32.8839C37.6376 32.1603 37.2034 32.1603 36.3808 32.8687C35.2915 33.8132 34.2556 34.2245 32.8083 34.2854C31.7267 34.3235 30.9573 34.1712 30.0509 33.7218C28.2837 32.8534 27.362 31.3833 27.5906 29.7761C27.7429 28.702 27.9029 28.4812 30.3632 26.0132L32.5874 23.7813L30.9421 22.1513L29.3044 20.5136H28.8931C28.6113 20.5136 28.398 20.5593 28.2456 20.6583Z" fill="#335EEA"/>
<path d="M24.9861 38.2693C24.4834 38.3836 24.3158 38.5207 22.8305 40.0289C21.2309 41.6437 21.1623 41.7504 21.2156 42.5273C21.2766 43.35 21.8783 43.9517 22.7238 44.0279C23.4856 44.0965 23.6074 44.0279 25.2299 42.4207C26.1516 41.5142 26.7533 40.8515 26.8447 40.6611C27.0275 40.265 27.0275 39.6099 26.8447 39.2138C26.54 38.5359 25.7022 38.1093 24.9861 38.2693Z" fill="#335EEA"/>
<path d="M30.6072 40.6915C30.4854 40.722 30.2797 40.8057 30.1502 40.8743C30.0283 40.9352 28.9086 42.0169 27.667 43.2661C25.199 45.7493 25.1914 45.7569 25.2524 46.5643C25.3133 47.3946 25.9074 47.9888 26.7453 48.0649C27.568 48.1411 27.568 48.1411 30.0588 45.6579C31.3613 44.363 32.3973 43.2737 32.4887 43.0985C32.6791 42.7329 32.702 42.0854 32.5344 41.6817C32.3592 41.2704 31.8945 40.8667 31.4604 40.7372C31.0414 40.6153 30.9576 40.6077 30.6072 40.6915Z" fill="#335EEA"/>
<path d="M32.6632 46.4806C32.1985 46.6939 29.4716 49.4894 29.3497 49.8702C29.205 50.312 29.2964 51.0052 29.5325 51.3708C29.9515 51.9954 30.797 52.2849 31.5282 52.0487C31.9091 51.9269 34.7046 49.1923 34.9179 48.7353C35.2073 48.1107 35.0474 47.2347 34.5599 46.7777C34.08 46.3359 33.2573 46.2064 32.6632 46.4806Z" fill="#335EEA"/>
<path d="M36.7008 50.5177C36.259 50.7234 35.124 51.9269 35.0021 52.323C34.8193 52.9552 34.9336 53.5037 35.3525 53.9683C35.8705 54.5396 36.6551 54.7224 37.3101 54.4177C37.7443 54.2197 38.9021 53.0009 39.024 52.6201C39.2982 51.7746 38.925 50.8757 38.148 50.5177C37.7519 50.3349 37.0968 50.3349 36.7008 50.5177Z" fill="#335EEA"/>
</g>
<defs>
<clipPath id="clip0_138:572">
<rect width="39" height="39" fill="white" transform="translate(18 18)"/>
</clipPath>
</defs>
</svg>
