<svg width="35" height="35" viewBox="0 0 35 35" fill="none" xmlns="http://www.w3.org/2000/svg">
<mask id="mask0_3_3629" style="mask-type:luminance" maskUnits="userSpaceOnUse" x="0" y="0" width="35" height="35">
<path d="M35 0H0V35H35V0Z" fill="white"/>
</mask>
<g mask="url(#mask0_3_3629)">
<path d="M29.856 29.8473C33.1562 26.5686 35.0064 22.1277 35 17.4999C34.9965 17.2143 34.8795 16.9415 34.6741 16.7408C34.4687 16.5399 34.1918 16.4274 33.9032 16.4274C33.6144 16.4274 33.3374 16.5399 33.1321 16.7408C32.9267 16.9415 32.8097 17.2143 32.8062 17.4999C32.8108 21.5554 31.1886 25.4472 28.296 28.3199C26.8918 29.7467 25.2131 30.8806 23.3588 31.655C21.5046 32.4292 19.5125 32.8281 17.5 32.8281C15.4875 32.8281 13.4954 32.4292 11.6411 31.655C9.78694 30.8806 8.1082 29.7467 6.70398 28.3199C3.81528 25.4443 2.19387 21.5542 2.19387 17.4993C2.19387 13.4443 3.81528 9.55416 6.70398 6.67847C8.10002 5.26273 9.76616 4.13532 11.6058 3.36162C13.4454 2.58793 15.4219 2.18333 17.4208 2.17129C17.8475 2.18452 18.2522 2.36225 18.5485 2.66656C18.8448 2.97085 19.0092 3.37767 19.0066 3.80024C19.0042 4.2228 18.835 4.62769 18.5352 4.92858C18.2354 5.22944 17.8286 5.40249 17.4017 5.4108C17.3622 5.41088 17.3226 5.41305 17.2834 5.4173C14.2424 5.51422 11.357 6.77083 9.23046 8.92438C6.98471 11.1617 5.7243 14.1873 5.7243 17.3409C5.7243 20.4945 6.98471 23.52 9.23046 25.7574C10.3276 26.8696 11.6384 27.7534 13.0858 28.3569C14.5332 28.9603 16.088 29.2711 17.6585 29.2711C19.229 29.2711 20.7838 28.9603 22.2312 28.3569C23.6785 27.7534 24.9893 26.8696 26.0865 25.7574C28.3357 23.5224 29.5966 20.4953 29.5921 17.3409C29.5968 16.8441 29.5019 16.3511 29.313 15.8907C29.1239 15.4304 28.8447 15.0116 28.4913 14.6587C28.1379 14.3057 27.7173 14.0255 27.2539 13.8343C26.7905 13.6431 26.2935 13.5447 25.7913 13.5447C25.2891 13.5447 24.7921 13.6431 24.3287 13.8343C23.8653 14.0255 23.4447 14.3057 23.0913 14.6587C22.7378 15.0116 22.4587 15.4304 22.2696 15.8907C22.0807 16.3511 21.9858 16.8441 21.9905 17.3409C21.9905 17.3726 21.9925 17.4023 21.9951 17.4328C21.9925 17.4632 21.9905 17.4936 21.9905 17.5246C21.9977 18.3909 21.7446 19.2397 21.2634 19.9635C20.7824 20.6872 20.0948 21.253 19.2882 21.5895C18.4816 21.9258 17.592 22.0176 16.7328 21.853C15.8733 21.6882 15.0827 21.2747 14.4612 20.6647C13.8397 20.0546 13.4154 19.2756 13.242 18.4265C13.0685 17.5774 13.1539 16.6964 13.4872 15.8955C13.8205 15.0944 14.3868 14.4094 15.1141 13.9273C15.8414 13.4453 16.6971 13.1879 17.5724 13.1879C17.7175 13.1897 17.8616 13.1628 17.9962 13.1091C18.1309 13.0553 18.2533 12.9756 18.3566 12.8746C18.4598 12.7737 18.5419 12.6534 18.5978 12.5208C18.6538 12.3883 18.6826 12.246 18.6826 12.1023C18.6826 11.9587 18.6538 11.8164 18.5978 11.6839C18.5419 11.5513 18.4598 11.431 18.3566 11.3301C18.2533 11.2291 18.1309 11.1494 17.9962 11.0956C17.8616 11.0418 17.7175 11.015 17.5724 11.0168C16.2733 11.0239 15.0055 11.4117 13.9289 12.1311C12.8522 12.8505 12.015 13.8694 11.5229 15.0593C11.0308 16.249 10.9058 17.5565 11.1636 18.8165C11.4215 20.0766 12.0507 21.2327 12.9718 22.1394C13.8929 23.0459 15.0647 23.6621 16.3394 23.9103C17.614 24.1584 18.9344 24.0274 20.1339 23.5338C21.3333 23.0401 22.3583 22.2061 23.0793 21.1366C23.8003 20.0671 24.1849 18.8102 24.1849 17.5246C24.1849 17.4929 24.1829 17.4632 24.1803 17.4328C24.1829 17.4023 24.1849 17.3719 24.1849 17.3409C24.1806 17.1294 24.219 16.9192 24.2979 16.7224C24.3767 16.5258 24.4945 16.3466 24.644 16.1957C24.7937 16.0445 24.9723 15.9244 25.1694 15.8425C25.3665 15.7606 25.5782 15.7184 25.7919 15.7184C26.0056 15.7184 26.2174 15.7606 26.4145 15.8425C26.6115 15.9244 26.7902 16.0445 26.9398 16.1957C27.0894 16.3466 27.2072 16.5258 27.2859 16.7224C27.3648 16.9192 27.4033 17.1294 27.3989 17.3409C27.4018 19.9234 26.3689 22.4014 24.5269 24.2307C23.6338 25.1387 22.5659 25.8603 21.3863 26.3532C20.2067 26.846 18.9392 27.0998 17.6588 27.0998C16.3785 27.0998 15.1111 26.846 13.9315 26.3532C12.7518 25.8603 11.684 25.1387 10.7909 24.2307C8.95137 22.3998 7.91883 19.9228 7.91883 17.3409C7.91883 14.759 8.95137 12.282 10.7909 10.4511C11.6847 9.54418 12.7526 8.82321 13.9319 8.33051C15.1112 7.8378 16.378 7.5833 17.6582 7.58194C17.7566 7.58167 17.8546 7.56825 17.9495 7.54201C18.8834 7.40028 19.7313 6.92231 20.3309 6.19983C20.9306 5.47732 21.2395 4.56117 21.1986 3.62712C21.1576 2.69304 20.7694 1.80685 20.1088 1.13852C19.4481 0.470194 18.5615 0.0667916 17.6188 0.00570369C17.5794 0.00145886 17.5397 -0.000709314 17.5 -0.00079155C17.4779 -0.00079155 17.456 -0.00079155 17.4339 -0.00079155C17.423 -0.00079155 17.4124 -0.00079155 17.4019 -0.00079155C17.3913 -0.00079155 17.3804 0.000474932 17.3699 0.00079177C15.0894 0.0185404 12.8351 0.482846 10.7368 1.36694C8.63853 2.25102 6.73787 3.53742 5.14436 5.15195C1.84951 8.43404 0.000297546 12.8727 0.000297546 17.4993C0.000297546 22.1258 1.84951 26.5643 5.14436 29.8465C6.7526 31.4774 8.67426 32.7736 10.7962 33.6583C12.9182 34.5433 15.1976 34.9992 17.5003 34.9992C19.803 34.9992 22.0823 34.5433 24.2045 33.6583C26.3264 32.7736 28.248 31.4774 29.8563 29.8465L29.856 29.8473Z" fill="url(#paint0_linear_3_3629)"/>
</g>
<defs>
<linearGradient id="paint0_linear_3_3629" x1="5.07526" y1="29.7842" x2="27.0902" y2="8.01439" gradientUnits="userSpaceOnUse">
<stop stop-color="#335EEA"/>
<stop offset="0.123" stop-color="#4966C5"/>
<stop offset="0.284" stop-color="#657ECF"/>
<stop offset="0.465" stop-color="#8898CF"/>
<stop offset="0.663" stop-color="#F5CB5D"/>
<stop offset="0.87" stop-color="#F1C759"/>
<stop offset="0.99" stop-color="#FFCD4C"/>
</linearGradient>
</defs>
</svg>
